<?xml version="1.0" encoding="utf-8"?>
<!-- Generator: Adobe Illustrator 22.1.0, SVG Export Plug-In . SVG Version: 6.00 Build 0)  -->
<svg version="1.1" id="Layer_1" xmlns="http://www.w3.org/2000/svg" xmlns:xlink="http://www.w3.org/1999/xlink" x="0px" y="0px"
	 viewBox="0 0 316 333" style="enable-background:new 0 0 316 333;" xml:space="preserve">
<style type="text/css">
	.st0{fill:#0C528C;}
</style>
<g>
	<g>
		<g>
			<g>
				<g>
					<path class="st0" d="M249.7,67.5c-24.7-24.7-57.5-38.3-92.4-38.3S89.6,42.8,65,67.5C40.3,92.2,26.7,125,26.7,159.9
						s13.6,67.7,38.3,92.4s57.5,38.3,92.4,38.3s67.7-13.6,92.4-38.3c24.7-24.7,38.3-57.5,38.3-92.4S274.4,92.2,249.7,67.5z
						 M157.3,275.2C93.8,275.2,42,223.5,42,159.9S93.8,44.5,157.3,44.5s115.3,51.8,115.3,115.3S220.9,275.2,157.3,275.2z"/>
				</g>
			</g>
			<g>
				<g>
					<path class="st0" d="M219.8,118c-3-3-7.9-3-10.8,0l-67.6,67.6L105.7,150c-3-3-7.9-3-10.8,0s-3,7.9,0,10.8l41,41
						c1.5,1.5,3.5,2.2,5.4,2.2s3.9-0.8,5.4-2.2l73-73C222.8,125.8,222.8,120.9,219.8,118z"/>
				</g>
			</g>
		</g>
	</g>
</g>
</svg>
