<?xml version="1.0" encoding="utf-8"?>
<!-- Generator: Adobe Illustrator 22.1.0, SVG Export Plug-In . SVG Version: 6.00 Build 0)  -->
<svg version="1.1" id="Layer_1" xmlns="http://www.w3.org/2000/svg" xmlns:xlink="http://www.w3.org/1999/xlink" x="0px" y="0px"
	 viewBox="0 0 316 333" style="enable-background:new 0 0 316 333;" xml:space="preserve">
<style type="text/css">
	.st0{fill:#0C528C;}
</style>
<g>
	<g>
		<path class="st0" d="M194.7,118.7c-2.6,0-4.7,2.1-4.7,4.7c0,2.6,2.1,4.7,4.7,4.7c2.6,0,4.7-2.1,4.7-4.7
			C199.4,120.9,197.3,118.7,194.7,118.7z"/>
		<path class="st0" d="M108.6,204.8c-2.6,0-4.7,2.1-4.7,4.7c0,2.6,2.1,4.7,4.7,4.7c2.6,0,4.7-2.1,4.7-4.7
			C113.4,206.9,111.2,204.8,108.6,204.8z"/>
		<path class="st0" d="M267.1,73.8c-1.6-0.4-3.3,0.1-4.4,1.3L243,95h-9.4l-10.4-10.8v-9.6l19.4-19.8c1.1-1.2,1.6-2.8,1.2-4.4
			c-0.4-1.6-1.6-2.9-3.1-3.4c-8.1-2.7-16.9-3.2-25.6-1.4c-8.9,1.9-17.2,6.5-23.5,13.1c-12.1,12.6-16.3,29.6-12,45.7l-35,35.1
			L86.4,81V69.5c0-1.7-0.9-3.2-2.3-4.1L50.5,45.2c-1.9-1.1-4.3-0.8-5.8,0.7L31.2,59.4c-1.5,1.5-1.8,3.9-0.7,5.8l20.2,33.7
			c0.9,1.4,2.4,2.3,4.1,2.3l11.5,0l58.3,58.6l-34.8,35c-16-4.3-32.9-0.1-45.4,11.9C37.6,213,33,221.2,31.1,230
			c-1.9,8.9-1.5,17.8,1.3,26c0.5,1.6,1.8,2.7,3.4,3.1c1.6,0.4,3.3-0.1,4.4-1.3L59.9,238h9.4l10.8,10.9v9.5l-19.8,19.8
			c-1.2,1.2-1.7,2.9-1.3,4.5c0.4,1.6,1.5,2.9,3.1,3.4c8.2,2.8,17,3.2,25.8,1.3c8.9-2,17.1-6.6,23.4-13.3
			c11.9-12.6,16.1-29.5,11.8-45.6l28-28.1l6.4,7l-2.9,2.9c-1.3,1.3-1.9,3.3-1.2,5.1c1.4,3.5,5.5,4.1,7.9,1.8l2.7-2.7l60.2,65.6
			c0,0,0.1,0.1,0.1,0.1c11.1,11.2,29.2,11.2,40.3,0c11.1-11.1,11.1-29.3,0-40.4c0,0-0.1-0.1-0.1-0.1l-65.5-60.2l2.6-2.6
			c1.3-1.3,1.9-3.3,1.2-5.1c-1.4-3.5-5.5-4.1-7.9-1.8l-2.9,2.9l-7-6.4l28.1-28.2c7.6,2.1,15.8,2.2,23.8,0.2
			c17.7-4.2,31.5-18.7,35-36.5c1.7-8.5,1.2-17.1-1.5-25C270,75.4,268.7,74.2,267.1,73.8z M68.4,91.9l-10.7,0L40.9,63.8l8.2-8.2
			l28,16.8v10.7c0,1.3,0.5,2.5,1.4,3.3l59.5,59.6l-6.7,6.7L71.8,93.3C70.9,92.4,69.7,91.9,68.4,91.9z M192.4,185.9l65.5,60.1
			c7.3,7.4,7.3,19.4-0.1,26.7c-7.4,7.4-19.3,7.4-26.7,0.1l-60.2-65.4L192.4,185.9z M185.5,179.5l-20.9,20.9l-6.4-6.9l20.4-20.4
			L185.5,179.5z M252.6,120.5c-13.2,10.1-28.4,12.1-41.3,6.8c-0.3-0.1-0.6-0.1-0.8,0.2c-23.7,23.8-80.3,80.6-97.9,98.3
			c-0.2,0.2-0.3,0.5-0.2,0.8c5,12.4,3.4,26-4.4,36.8c-7.2,10.1-18.5,15.9-30.9,15.9c-1.4,0-2.8-0.1-4.2-0.2l16.3-16.2
			c0.1-0.1,0.2-0.3,0.2-0.5v-16.9c0-0.2-0.1-0.4-0.2-0.5l-16-16c-0.1-0.1-0.3-0.2-0.5-0.2H55.9c-0.2,0-0.4,0.1-0.5,0.2l-16.2,16.4
			c-0.8-7.4,0.6-15.2,4.1-22.5c0.2-0.3,0.3-0.7,0.6-1c10.7-16.5,28.8-22.6,45.5-17c1.7,0.6,3.6,0.1,4.9-1.2
			c0.3-0.3,94.2-94.6,94.3-94.6c1.3-1.3,1.7-3.2,1.1-4.9c-5.4-16.1,0.1-33.6,15.1-44.4c0.3-0.2,0.6-0.4,0.9-0.6
			c8.1-4.6,16.5-6.2,24.4-5.3l-16,16.3c-0.1,0.1-0.2,0.3-0.2,0.5v16.8c0,0.2,0.1,0.4,0.2,0.5l15.5,16.1c0.1,0.2,0.3,0.2,0.6,0.2
			h16.8c0.2,0,0.4-0.1,0.5-0.2l16.2-16.4c1.1,10.6-2.1,21.9-9.7,31.5C253.5,119.7,253.1,120.1,252.6,120.5z"/>
		<path class="st0" d="M177.9,133.5l-59.3,59.3c-1.8,1.8-1.8,4.8,0,6.7c1.8,1.8,4.8,1.8,6.7,0l59.3-59.3c1.8-1.8,1.8-4.8,0-6.7
			S179.8,131.7,177.9,133.5z"/>
		<path class="st0" d="M237.8,259.3c1.8,1.8,4.8,1.8,6.7,0c1.8-1.9,1.8-4.8,0-6.7L201.8,210c-1.9-1.8-4.9-1.8-6.7,0
			c-1.8,1.9-1.8,4.8,0,6.7L237.8,259.3z"/>
	</g>
</g>
</svg>
