<?xml version="1.0" encoding="utf-8"?>
<!-- Generator: Adobe Illustrator 22.1.0, SVG Export Plug-In . SVG Version: 6.00 Build 0)  -->
<svg version="1.1" id="Layer_1" xmlns="http://www.w3.org/2000/svg" xmlns:xlink="http://www.w3.org/1999/xlink" x="0px" y="0px"
	 viewBox="0 0 316 333" style="enable-background:new 0 0 316 333;" xml:space="preserve">
<style type="text/css">
	.st0{fill:#0C528C;}
</style>
<g>
	<g>
		<g>
			<g>
				<path class="st0" d="M259.4,66.9c-3.5-4-8.5-6.4-13.9-6.4h-17.6v-5.3c0-6.8-5.5-12.2-12.2-12.2H97.4c-6.8,0-12.2,5.5-12.2,12.2
					v5.3l-17.3,0c-3.9,0-7.7,1.1-10.8,3.4c-5.7,4.1-8.4,10.8-7.3,17.4c4.6,28.1,22.4,53,47.7,66.7c2.3,5.5,4.9,10.8,7.8,15.6
					c9.3,15.6,20.9,26.3,33.6,31.5c1.3,13-7.4,25.3-20.5,28.2c0,0,0,0-0.1,0c-2.6,0.6-4.5,2.9-4.5,5.6v26.5H103
					c-9.6,0-17.3,7.8-17.3,17.3v13.4c0,3.2,2.6,5.8,5.8,5.8h130.7c3.2,0,5.8-2.6,5.8-5.8v-13.4c0-9.6-7.8-17.3-17.3-17.3h-10.9V229
					c0-2.7-1.9-5-4.5-5.6c0,0,0,0-0.1,0c-13.2-2.9-21.9-15.4-20.5-28.4c12.5-5.3,23.9-16,33.1-31.3c2.9-4.9,5.5-10.1,7.9-15.6
					c25.4-13.6,43.2-38.5,47.8-66.7C264.3,76.2,262.8,70.9,259.4,66.9z M61.3,79.6c-0.3-2,0.3-4,1.8-5.5c1.3-1.3,3-1.9,4.8-1.9
					l17.3,0v10.6c0,16.7,2.1,32.8,6.2,47.6C75.5,117.9,64.6,99.7,61.3,79.6z M216.2,272.9v7.9H97.3v-7.9c0-3.2,2.6-5.8,5.8-5.8
					h107.3C213.6,267.1,216.2,269.7,216.2,272.9z M188,234.5v21h-62.9v-21H188z M140.2,223.3c1.4-1.6,2.7-3.3,3.9-5.1
					c3.8-6,5.9-12.8,6-19.8c2.1,0.3,4.1,0.4,6.2,0.4c2.3,0,4.5-0.2,6.7-0.5c0.1,9.4,3.8,18.2,9.9,25L140.2,223.3L140.2,223.3z
					 M216.2,82.5c0,28.4-6.5,55.1-18.4,75.1c-11.3,19-26,29.5-41.3,29.5c-15.4,0-30-10.5-41.3-29.5c-11.8-20-18.4-46.6-18.4-75.1
					V54.9c0-0.4,0.3-0.7,0.7-0.7h118c0.4,0,0.7,0.3,0.7,0.7V82.5z M251.8,79.6c-3.3,20.1-14.2,38.3-30,50.8
					c4-14.8,6.2-30.9,6.2-47.5V72.2l17.3,0c1.8,0,3.6,0.7,4.8,1.9C251.5,75.7,252.1,77.6,251.8,79.6z"/>
			</g>
		</g>
		<g>
			<g>
				<path class="st0" d="M191.5,102.1c-0.7-2.1-2.5-3.6-4.7-3.9l-17.4-2.5l-7.8-15.8c-1-2-3-3.2-5.2-3.2c-2.2,0-4.2,1.2-5.2,3.2
					l-7.8,15.8L126,98.1c-2.2,0.3-4,1.8-4.7,3.9c-0.7,2.1-0.1,4.4,1.5,5.9l12.6,12.3l-3,17.4c-0.4,2.2,0.5,4.4,2.3,5.6
					c1.8,1.3,4.1,1.5,6.1,0.4l15.6-8.2l15.6,8.2c0.8,0.4,1.8,0.7,2.7,0.7c1.2,0,2.4-0.4,3.4-1.1c1.8-1.3,2.7-3.5,2.3-5.6l-3-17.4
					L190,108C191.6,106.5,192.1,104.2,191.5,102.1z M167.2,114.1c-1.4,1.3-2,3.2-1.7,5.1l1.5,8.8l-7.9-4.2c-0.8-0.4-1.8-0.7-2.7-0.7
					s-1.8,0.2-2.7,0.7l-7.9,4.2l1.5-8.8c0.3-1.9-0.3-3.8-1.7-5.1l-6.4-6.2l8.8-1.3c1.9-0.3,3.5-1.5,4.3-3.2l4-8l4,8
					c0.8,1.7,2.5,2.9,4.3,3.2l8.8,1.3L167.2,114.1z"/>
			</g>
		</g>
	</g>
</g>
</svg>
