<?xml version="1.0" encoding="utf-8"?>
<!-- Generator: Adobe Illustrator 21.0.0, SVG Export Plug-In . SVG Version: 6.00 Build 0)  -->
<svg version="1.1" id="Layer_1" xmlns="http://www.w3.org/2000/svg" xmlns:xlink="http://www.w3.org/1999/xlink" x="0px" y="0px"
	 viewBox="0 0 11 11" style="enable-background:new 0 0 11 11;" xml:space="preserve">
<style type="text/css">
	.st0{fill:#FFFFFF;}
</style>
<g>
	<g>
		<g>
			<path class="st0" d="M5.6,0.9c2.7,0,4.8,2.2,4.8,4.8s-2.2,4.8-4.8,4.8S0.8,8.3,0.8,5.7S2.9,0.9,5.6,0.9 M5.6,0.2
				c-3,0-5.5,2.5-5.5,5.5s2.5,5.5,5.5,5.5s5.5-2.5,5.5-5.5S8.6,0.2,5.6,0.2L5.6,0.2z M8.7,7.5L8.7,7.5C8.6,7.2,8.3,7,8.1,6.9
				L7.3,6.7c-0.2-0.1-0.5,0-0.7,0.2L6.3,7.2C5.2,6.9,4.4,6.1,4.1,5l0.3-0.3C4.6,4.5,4.6,4.2,4.6,4L4.3,3.2C4.3,3,4.1,2.7,3.8,2.6
				l-0.1,0c-0.2-0.1-0.5,0-0.7,0.2L2.6,3.2C2.5,3.3,2.5,3.5,2.5,3.5C2.5,4.9,3,6.3,4,7.3c1,1,2.3,1.5,3.7,1.5c0,0,0.2,0,0.3-0.1
				l0.4-0.4C8.7,8,8.7,7.7,8.7,7.5z"/>
		</g>
	</g>
</g>
</svg>
